<svg width="160" height="112" viewBox="0 0 160 112" fill="none" xmlns="http://www.w3.org/2000/svg">
<path d="M17.8486 28H15.7705L15.7842 26.9268H17.8486C18.5596 26.9268 19.152 26.7786 19.626 26.4824C20.0999 26.1816 20.4554 25.7624 20.6924 25.2246C20.9339 24.6823 21.0547 24.0488 21.0547 23.3242V22.7158C21.0547 22.1462 20.9863 21.6403 20.8496 21.1982C20.7129 20.7516 20.5124 20.3757 20.248 20.0703C19.9837 19.7604 19.6602 19.5257 19.2773 19.3662C18.8991 19.2067 18.4639 19.127 17.9717 19.127H15.7295V18.0469H17.9717C18.6234 18.0469 19.2181 18.1562 19.7559 18.375C20.2936 18.5892 20.7562 18.9014 21.1436 19.3115C21.5355 19.7171 21.8363 20.2093 22.0459 20.7881C22.2555 21.3623 22.3604 22.0094 22.3604 22.7295V23.3242C22.3604 24.0443 22.2555 24.6937 22.0459 25.2725C21.8363 25.8467 21.5332 26.3366 21.1367 26.7422C20.7448 27.1478 20.2708 27.46 19.7148 27.6787C19.1634 27.8929 18.5413 28 17.8486 28ZM16.4746 18.0469V28H15.1553V18.0469H16.4746ZM30.666 26.9268V28H25.3955V26.9268H30.666ZM25.6621 18.0469V28H24.3428V18.0469H25.6621ZM29.9688 22.3262V23.3994H25.3955V22.3262H29.9688ZM30.5977 18.0469V19.127H25.3955V18.0469H30.5977ZM33.6191 18.0469V28H32.2998V18.0469H33.6191ZM37.7891 22.5244V23.6045H33.332V22.5244H37.7891ZM38.4658 18.0469V19.127H33.332V18.0469H38.4658ZM40.0381 18.0469H43.333C44.0804 18.0469 44.7116 18.1608 45.2266 18.3887C45.7461 18.6165 46.1403 18.9538 46.4092 19.4004C46.6826 19.8424 46.8193 20.387 46.8193 21.0342C46.8193 21.4899 46.7259 21.9069 46.5391 22.2852C46.3568 22.6589 46.0924 22.9779 45.7461 23.2422C45.4043 23.502 44.9941 23.6956 44.5156 23.8232L44.1465 23.9668H41.0498L41.0361 22.8936H43.374C43.848 22.8936 44.2422 22.8115 44.5566 22.6475C44.8711 22.4788 45.1081 22.2533 45.2676 21.9707C45.4271 21.6882 45.5068 21.376 45.5068 21.0342C45.5068 20.6514 45.4316 20.3164 45.2812 20.0293C45.1309 19.7422 44.8939 19.5212 44.5703 19.3662C44.2513 19.2067 43.8389 19.127 43.333 19.127H41.3574V28H40.0381V18.0469ZM45.8555 28L43.4355 23.4883L44.8096 23.4814L47.2637 27.918V28H45.8555ZM52.3496 18.9287L49.0547 28H47.708L51.502 18.0469H52.3701L52.3496 18.9287ZM55.1113 28L51.8096 18.9287L51.7891 18.0469H52.6572L56.4648 28H55.1113ZM54.9404 24.3154V25.3955H49.3486V24.3154H54.9404Z" fill="black"/>
<path d="M104.833 72.0469V82H103.534V72.0469H104.833ZM108.032 72.0469V73.127H100.342V72.0469H108.032ZM109.509 72.0469H112.804C113.551 72.0469 114.182 72.1608 114.697 72.3887C115.217 72.6165 115.611 72.9538 115.88 73.4004C116.153 73.8424 116.29 74.387 116.29 75.0342C116.29 75.4899 116.197 75.9069 116.01 76.2852C115.827 76.6589 115.563 76.9779 115.217 77.2422C114.875 77.502 114.465 77.6956 113.986 77.8232L113.617 77.9668H110.521L110.507 76.8936H112.845C113.319 76.8936 113.713 76.8115 114.027 76.6475C114.342 76.4788 114.579 76.2533 114.738 75.9707C114.898 75.6882 114.978 75.376 114.978 75.0342C114.978 74.6514 114.902 74.3164 114.752 74.0293C114.602 73.7422 114.365 73.5212 114.041 73.3662C113.722 73.2067 113.31 73.127 112.804 73.127H110.828V82H109.509V72.0469ZM115.326 82L112.906 77.4883L114.28 77.4814L116.734 81.918V82H115.326ZM121.82 72.9287L118.525 82H117.179L120.973 72.0469H121.841L121.82 72.9287ZM124.582 82L121.28 72.9287L121.26 72.0469H122.128L125.936 82H124.582ZM124.411 78.3154V79.3955H118.819V78.3154H124.411ZM133.195 78.835H134.508C134.439 79.4639 134.259 80.0267 133.968 80.5234C133.676 81.0202 133.264 81.4144 132.73 81.7061C132.197 81.9932 131.532 82.1367 130.734 82.1367C130.151 82.1367 129.62 82.0273 129.142 81.8086C128.668 81.5898 128.26 81.2799 127.918 80.8789C127.576 80.4733 127.312 79.988 127.125 79.4229C126.943 78.8532 126.852 78.2197 126.852 77.5225V76.5312C126.852 75.834 126.943 75.2028 127.125 74.6377C127.312 74.068 127.578 73.5804 127.925 73.1748C128.276 72.7692 128.697 72.457 129.189 72.2383C129.682 72.0195 130.235 71.9102 130.851 71.9102C131.603 71.9102 132.238 72.0514 132.758 72.334C133.277 72.6165 133.681 73.0085 133.968 73.5098C134.259 74.0065 134.439 74.583 134.508 75.2393H133.195C133.132 74.7744 133.013 74.3757 132.84 74.043C132.667 73.7057 132.421 73.446 132.102 73.2637C131.783 73.0814 131.366 72.9902 130.851 72.9902C130.409 72.9902 130.019 73.0745 129.682 73.2432C129.349 73.4118 129.069 73.651 128.841 73.9609C128.618 74.2708 128.449 74.6423 128.335 75.0752C128.221 75.5081 128.164 75.9889 128.164 76.5176V77.5225C128.164 78.0101 128.214 78.4681 128.314 78.8965C128.419 79.3249 128.576 79.7008 128.786 80.0244C128.996 80.348 129.262 80.6032 129.586 80.79C129.91 80.9723 130.292 81.0635 130.734 81.0635C131.295 81.0635 131.742 80.9746 132.074 80.7969C132.407 80.6191 132.658 80.3639 132.826 80.0312C132.999 79.6986 133.122 79.2998 133.195 78.835ZM142.629 80.9268V82H137.358V80.9268H142.629ZM137.625 72.0469V82H136.306V72.0469H137.625ZM141.932 76.3262V77.3994H137.358V76.3262H141.932ZM142.561 72.0469V73.127H137.358V72.0469H142.561ZM149.567 79.4844C149.567 79.252 149.531 79.0469 149.458 78.8691C149.39 78.6868 149.267 78.5228 149.089 78.377C148.916 78.2311 148.674 78.0921 148.364 77.96C148.059 77.8278 147.672 77.6934 147.202 77.5566C146.71 77.4108 146.266 77.249 145.869 77.0713C145.473 76.889 145.133 76.6816 144.851 76.4492C144.568 76.2168 144.352 75.9502 144.201 75.6494C144.051 75.3486 143.976 75.0046 143.976 74.6172C143.976 74.2298 144.055 73.8721 144.215 73.5439C144.374 73.2158 144.602 72.931 144.898 72.6895C145.199 72.4434 145.557 72.252 145.972 72.1152C146.386 71.9785 146.849 71.9102 147.359 71.9102C148.107 71.9102 148.74 72.0537 149.26 72.3408C149.784 72.6234 150.183 72.9948 150.456 73.4551C150.729 73.9108 150.866 74.3984 150.866 74.918H149.554C149.554 74.5443 149.474 74.2139 149.314 73.9268C149.155 73.6351 148.913 73.4072 148.59 73.2432C148.266 73.0745 147.856 72.9902 147.359 72.9902C146.89 72.9902 146.503 73.0609 146.197 73.2021C145.892 73.3434 145.664 73.5348 145.514 73.7764C145.368 74.0179 145.295 74.2936 145.295 74.6035C145.295 74.8132 145.338 75.0046 145.425 75.1777C145.516 75.3464 145.655 75.5036 145.842 75.6494C146.033 75.7952 146.275 75.9297 146.566 76.0527C146.863 76.1758 147.216 76.2943 147.626 76.4082C148.191 76.5677 148.679 76.7454 149.089 76.9414C149.499 77.1374 149.836 77.3584 150.101 77.6045C150.369 77.846 150.568 78.1217 150.695 78.4316C150.827 78.737 150.894 79.0833 150.894 79.4707C150.894 79.8763 150.812 80.2432 150.647 80.5713C150.483 80.8994 150.249 81.1797 149.943 81.4121C149.638 81.6445 149.271 81.8245 148.843 81.9521C148.419 82.0752 147.945 82.1367 147.421 82.1367C146.961 82.1367 146.507 82.0729 146.061 81.9453C145.618 81.8177 145.215 81.6263 144.851 81.3711C144.491 81.1159 144.201 80.8014 143.982 80.4277C143.768 80.0495 143.661 79.612 143.661 79.1152H144.974C144.974 79.457 145.04 79.751 145.172 79.9971C145.304 80.2386 145.484 80.4391 145.712 80.5986C145.944 80.7581 146.206 80.8766 146.498 80.9541C146.794 81.027 147.102 81.0635 147.421 81.0635C147.881 81.0635 148.271 80.9997 148.59 80.8721C148.909 80.7445 149.15 80.5622 149.314 80.3252C149.483 80.0882 149.567 79.8079 149.567 79.4844Z" fill="black"/>
<path d="M101.418 53.995C110.723 45.3191 111.233 30.7426 102.558 21.4374C93.8817 12.1322 79.3052 11.622 70 20.2978" stroke="#4F9F97" stroke-width="3"/>
<path d="M57 44C46.8411 54.1589 45.5389 69.3275 54.0914 77.88C62.644 86.4325 77.8126 85.1303 87.9714 74.9714" stroke="#4F9F97" stroke-width="3"/>
<path d="M96.9682 17.4841L111.863 20.8209L101.526 32.0516L96.9682 17.4841Z" fill="#4F9F97"/>
<path d="M65.0669 83.9172L49.8033 83.8211L57.5184 70.6505L65.0669 83.9172Z" fill="#4F9F97"/>
<line x1="27.8536" y1="35.5879" x2="28.3536" y2="36.0879" stroke="white"/>
<line x1="27.6464" y1="36.0879" x2="28.6464" y2="35.0879" stroke="white"/>
<rect x="1" y="1" width="68" height="3.5" fill="black"/>
<rect x="1.5" y="1.5" width="67" height="42" stroke="black" stroke-width="3"/>
<line x1="35.5" y1="45" x2="35.5" y2="57" stroke="black" stroke-width="4"/>
<line x1="50" y1="57.5" x2="20.5" y2="57.5" stroke="black" stroke-width="2"/>
<line x1="36" y1="56.5" x2="33" y2="56.5" stroke="black"/>
<line x1="117.854" y1="88.5879" x2="118.354" y2="89.0879" stroke="white"/>
<line x1="117.646" y1="89.0879" x2="118.646" y2="88.0879" stroke="white"/>
<rect x="91" y="54" width="68" height="3.5" fill="black"/>
<rect x="91.5" y="54.5" width="67" height="42" stroke="black" stroke-width="3"/>
<line x1="125.5" y1="98" x2="125.5" y2="110" stroke="black" stroke-width="4"/>
<line x1="140" y1="110.5" x2="110.5" y2="110.5" stroke="black" stroke-width="2"/>
<line x1="126" y1="109.5" x2="123" y2="109.5" stroke="black"/>
</svg>
