<svg width="140" height="115" viewBox="0 0 140 115" fill="none" xmlns="http://www.w3.org/2000/svg">
<line x1="70.3536" y1="43.6464" x2="71.3536" y2="44.6464" stroke="white"/>
<line x1="70.6464" y1="44.6464" x2="72.6464" y2="42.6464" stroke="white"/>
<path d="M74.5 12.5H126.5V89.5H74.5V12.5Z" stroke="black"/>
<rect x="80.5" y="68.5" width="40" height="13" rx="1.5" stroke="#00823B"/>
<rect x="17" y="44.8828" width="11" height="1" fill="#505A5F"/>
<rect x="17" y="35.8828" width="11" height="1" fill="#505A5F"/>
<rect x="17" y="32.8828" width="11" height="1" fill="#505A5F"/>
<rect x="17" y="28.8828" width="11" height="1" fill="#505A5F"/>
<rect x="81" y="29" width="32" height="1" fill="#505A5F"/>
<rect x="81" y="42" width="32" height="1" fill="#505A5F"/>
<rect x="81" y="54" width="32" height="1" fill="#505A5F"/>
<rect x="83" y="72" width="20" height="1" fill="#505A5F"/>
<rect x="83" y="74" width="10" height="1" fill="#505A5F"/>
<rect x="81" y="31" width="39" height="1" fill="#505A5F"/>
<rect x="81" y="44" width="39" height="1" fill="#505A5F"/>
<rect x="81" y="56" width="39" height="1" fill="#505A5F"/>
<rect x="87" y="33" width="33" height="1" fill="#505A5F"/>
<rect x="87" y="46" width="33" height="1" fill="#505A5F"/>
<rect x="81" y="58" width="39" height="1" fill="#505A5F"/>
<rect x="81" y="35" width="39" height="1" fill="#505A5F"/>
<rect x="87" y="48" width="33" height="1" fill="#505A5F"/>
<rect x="81" y="60" width="39" height="1" fill="#505A5F"/>
<rect x="87" y="37" width="33" height="1" fill="#505A5F"/>
<rect x="87" y="50" width="33" height="1" fill="#505A5F"/>
<rect x="81" y="62" width="25" height="1" fill="#505A5F"/>
<rect x="17" y="52.8828" width="11" height="1" fill="#505A5F"/>
<rect x="17" y="69.8828" width="11" height="1" fill="#505A5F"/>
<rect x="17" y="59.8828" width="13" height="1" fill="#505A5F"/>
<rect x="17" y="20.8828" width="32" height="3" fill="#505A5F"/>
<rect x="81" y="21" width="32" height="3" fill="#505A5F"/>
<rect x="17" y="40.8828" width="17" height="2" fill="#505A5F"/>
<rect x="17" y="64.8828" width="17" height="2" fill="#505A5F"/>
<rect x="34" y="46.8828" width="11" height="1" fill="#505A5F"/>
<rect x="34" y="44.8828" width="11" height="1" fill="#505A5F"/>
<rect x="34" y="35.8828" width="11" height="1" fill="#505A5F"/>
<rect x="34" y="32.8828" width="11" height="1" fill="#505A5F"/>
<rect x="34" y="28.8828" width="11" height="1" fill="#505A5F"/>
<rect x="34" y="52.8828" width="11" height="1" fill="#505A5F"/>
<rect x="34" y="69.8828" width="11" height="1" fill="#505A5F"/>
<rect x="34" y="59.8828" width="11" height="1" fill="#505A5F"/>
<rect x="34" y="48.8828" width="8" height="1" fill="#505A5F"/>
<rect x="34" y="54.8828" width="8" height="1" fill="#505A5F"/>
<rect x="34" y="71.8828" width="8" height="1" fill="#505A5F"/>
<path d="M10.5 12.5H65.036V89.5H10.5V12.5Z" stroke="black"/>
<rect x="16" y="76.8828" width="20" height="7" fill="#00823B"/>
<line x1="55.3536" y1="71.5293" x2="56.3536" y2="72.5293" stroke="white"/>
<line x1="51.7071" y1="46.6929" x2="54.9071" y2="49.8929" stroke="#4F9F97" stroke-width="2"/>
<line x1="53.4929" y1="49.8929" x2="58.2929" y2="45.0929" stroke="#4F9F97" stroke-width="2"/>
<line x1="110.707" y1="73.8929" x2="113.907" y2="77.0929" stroke="#4F9F97" stroke-width="2"/>
<line x1="112.493" y1="77.0929" x2="117.293" y2="72.2929" stroke="#4F9F97" stroke-width="2"/>
<line x1="51.7071" y1="31.8929" x2="54.9071" y2="35.0929" stroke="#4F9F97" stroke-width="2"/>
<line x1="53.4929" y1="35.0929" x2="58.2929" y2="30.2929" stroke="#4F9F97" stroke-width="2"/>
<line x1="52.7071" y1="67.8929" x2="55.9071" y2="71.0929" stroke="#4F9F97" stroke-width="2"/>
<line x1="54.4929" y1="71.0929" x2="59.2929" y2="66.2929" stroke="#4F9F97" stroke-width="2"/>
<line x1="55.6464" y1="72.5293" x2="57.6464" y2="70.5293" stroke="white"/>
<rect x="2" y="2" width="136" height="7" fill="black"/>
<rect x="1.5" y="1.5" width="137" height="87" stroke="black" stroke-width="3"/>
<line x1="69" y1="90" x2="69" y2="114" stroke="black" stroke-width="4"/>
<line x1="100" y1="114" x2="41" y2="114" stroke="black" stroke-width="2"/>
<line x1="72" y1="112.5" x2="66" y2="112.5" stroke="black"/>
<rect x="11" y="3" width="4" height="4" fill="#D9D9D9"/>
<rect x="17" y="4" width="15" height="2" fill="#D9D9D9"/>
<rect x="41" y="4" width="29" height="2" fill="#D9D9D9"/>
<rect x="120" y="4" width="6" height="2" fill="#D9D9D9"/>
</svg>
